<svg viewBox="0 0 1200 760" xmlns="http://www.w3.org/2000/svg" role="img" aria-label="VizeDraw workspace with revision tracking, sheet markups, and drawing inspector" font-family="ui-sans-serif, system-ui, sans-serif">
  <defs>
    <linearGradient id="bgB" x1="0" y1="0" x2="1" y2="1">
      <stop offset="0" stop-color="#0B1120"/>
      <stop offset="1" stop-color="#070B16"/>
    </linearGradient>
    <linearGradient id="sheetB" x1="0" y1="0" x2="0" y2="1">
      <stop offset="0" stop-color="#0F1A2E"/>
      <stop offset="1" stop-color="#0B1426"/>
    </linearGradient>
    <pattern id="bp2" width="30" height="30" patternUnits="userSpaceOnUse">
      <path d="M30 0H0V30" fill="none" stroke="#4ebabd" stroke-opacity="0.10" stroke-width="1"/>
    </pattern>
  </defs>

  <rect width="1200" height="760" rx="18" fill="url(#bgB)"/>
  <rect x="0.5" y="0.5" width="1199" height="759" rx="18" fill="none" stroke="#1E2A42"/>

  <!-- title bar -->
  <rect x="0" y="0" width="1200" height="46" rx="18" fill="#0B1120"/>
  <rect x="0" y="28" width="1200" height="18" fill="#0B1120"/>
  <circle cx="26" cy="23" r="5" fill="#FF6B4A" fill-opacity="0.8"/>
  <circle cx="44" cy="23" r="5" fill="#FFB23E" fill-opacity="0.8"/>
  <circle cx="62" cy="23" r="5" fill="#4ebabd" fill-opacity="0.8"/>
  <text x="92" y="27" fill="#5E6A80" font-size="11.5" letter-spacing="1.4" font-family="ui-monospace, monospace">app.vizedraw.com · revision compare &amp; markups</text>
  <line x1="0" y1="46" x2="1200" y2="46" stroke="#1E2A42"/>

  <!-- compare toggle bar -->
  <rect x="0" y="46" width="1200" height="42" fill="#0A0F1C"/>
  <line x1="0" y1="88" x2="1200" y2="88" stroke="#1E2A42"/>
  <rect x="24" y="55" width="150" height="24" rx="12" fill="#0E1626" stroke="#1E2A42"/>
  <circle cx="40" cy="67" r="6" fill="#8A94A6"/>
  <text x="54" y="71" fill="#8A94A6" font-size="11.5" font-weight="600">Rev B · Tender</text>
  <g transform="translate(186,58)" fill="none" stroke="#5E6A80" stroke-width="1.6"><path d="M0 9h16M11 4l5 5-5 5"/></g>
  <rect x="216" y="55" width="170" height="24" rx="12" fill="#4ebabd" fill-opacity="0.16" stroke="#4ebabd" stroke-opacity="0.6"/>
  <circle cx="232" cy="67" r="6" fill="#4ebabd"/>
  <text x="246" y="71" fill="#6fcfd1" font-size="11.5" font-weight="600">Rev C · Construction</text>
  <rect x="980" y="53" width="92" height="28" rx="14" fill="#0E1626" stroke="#1E2A42"/>
  <text x="1026" y="71" fill="#8A94A6" font-size="11" text-anchor="middle" font-weight="600">Overlay</text>
  <rect x="1080" y="53" width="96" height="28" rx="14" fill="#4ebabd" fill-opacity="0.14" stroke="#4ebabd" stroke-opacity="0.5"/>
  <text x="1128" y="71" fill="#4ebabd" font-size="11" text-anchor="middle" font-weight="600">Pixel diff</text>

  <!-- left: BEFORE sheet -->
  <text x="44" y="116" fill="#5E6A80" font-size="10" letter-spacing="1.5" font-family="ui-monospace, monospace">BEFORE — REV B</text>
  <rect x="44" y="128" width="520" height="586" rx="10" fill="url(#sheetB)" stroke="#1E2A42"/>
  <rect x="44" y="128" width="520" height="586" rx="10" fill="url(#bp2)"/>
  <g stroke="#8A94A6" stroke-opacity="0.7" stroke-width="1.5" fill="none">
    <rect x="110" y="200" width="388" height="300"/>
    <line x1="110" y1="320" x2="498" y2="320"/>
    <line x1="304" y1="200" x2="304" y2="500"/>
    <circle cx="200" cy="260" r="26"/>
    <rect x="350" y="380" width="100" height="80"/>
  </g>
  <text x="304" y="560" fill="#5E6A80" font-size="11" text-anchor="middle" font-family="ui-monospace, monospace">S-201 · FRAMING PLAN</text>

  <!-- right: AFTER sheet with changes highlighted -->
  <text x="636" y="116" fill="#6fcfd1" font-size="10" letter-spacing="1.5" font-family="ui-monospace, monospace">AFTER — REV C</text>
  <rect x="636" y="128" width="520" height="586" rx="10" fill="url(#sheetB)" stroke="#4ebabd" stroke-opacity="0.5"/>
  <rect x="636" y="128" width="520" height="586" rx="10" fill="url(#bp2)"/>
  <g stroke="#9DB6FF" stroke-opacity="0.85" stroke-width="1.5" fill="none">
    <rect x="702" y="200" width="388" height="300"/>
    <line x1="702" y1="320" x2="1090" y2="320"/>
    <line x1="896" y1="200" x2="896" y2="500"/>
    <circle cx="792" cy="260" r="26"/>
  </g>
  <!-- changed element highlighted -->
  <g>
    <rect x="936" y="372" width="120" height="96" fill="#4ebabd" fill-opacity="0.1" stroke="#4ebabd" stroke-width="1.8"/>
    <rect x="928" y="364" width="136" height="112" rx="6" fill="none" stroke="#4ebabd" stroke-opacity="0.35" stroke-width="2" stroke-dasharray="5 6"/>
    <circle cx="1056" cy="364" r="13" fill="#4ebabd"/>
    <path d="M1050 364 l4 4 6 -8" stroke="#062" stroke-width="2" fill="none" stroke-linecap="round" stroke-linejoin="round"/>
  </g>
  <!-- markup arrow -->
  <g stroke="#FF6B4A" stroke-width="2" fill="none" stroke-linecap="round">
    <path d="M820 540 q60 -30 110 -60"/>
    <path d="M930 480 l4 16 -18 -4"/>
  </g>
  <text x="896" y="560" fill="#6fcfd1" font-size="11" text-anchor="middle" font-family="ui-monospace, monospace">S-201 · FRAMING PLAN</text>

  <!-- diff legend chip -->
  <g transform="translate(656,148)">
    <rect x="0" y="0" width="150" height="26" rx="13" fill="#0B1120" stroke="#1E2A42"/>
    <circle cx="18" cy="13" r="5" fill="#4ebabd"/>
    <text x="30" y="17" fill="#8A94A6" font-size="10.5" font-weight="600">3 changes detected</text>
  </g>

  <!-- bottom inspector strip -->
  <rect x="44" y="664" width="1112" height="0" fill="none"/>
  <line x1="44" y1="600" x2="44" y2="600" stroke="none"/>

  <!-- floating inspector card -->
  <g transform="translate(786,520)">
    <rect x="0" y="0" width="346" height="178" rx="12" fill="#0A1020" stroke="#4ebabd" stroke-opacity="0.35"/>
    <rect x="0" y="0" width="346" height="178" rx="12" fill="#0A1020" fill-opacity="0.2"/>
    <text x="18" y="28" fill="#ECEFF4" font-size="13" font-weight="600">Drawing inspector</text>
    <rect x="248" y="14" width="84" height="20" rx="10" fill="#4ebabd" fill-opacity="0.14"/>
    <text x="290" y="28" fill="#4ebabd" font-size="10" text-anchor="middle" font-weight="600">Auto-detect</text>
    <line x1="18" y1="44" x2="328" y2="44" stroke="#1E2A42"/>

    <text x="18" y="68" fill="#5E6A80" font-size="11">Scale</text>
    <text x="328" y="68" fill="#ECEFF4" font-size="11.5" text-anchor="end" font-family="ui-monospace, monospace">1 : 100  (calibrated)</text>
    <text x="18" y="92" fill="#5E6A80" font-size="11">Sheet rev</text>
    <text x="328" y="92" fill="#ECEFF4" font-size="11.5" text-anchor="end" font-family="ui-monospace, monospace">B → C</text>
    <text x="18" y="116" fill="#5E6A80" font-size="11">Changed region</text>
    <text x="328" y="116" fill="#4ebabd" font-size="11.5" text-anchor="end" font-family="ui-monospace, monospace">Footing F-12 resized</text>
    <text x="18" y="140" fill="#5E6A80" font-size="11">Status</text>
    <text x="328" y="140" fill="#FFB23E" font-size="11.5" text-anchor="end" font-family="ui-monospace, monospace">Needs RFI</text>

    <rect x="18" y="150" width="150" height="14" rx="7" fill="#0E1626"/>
    <rect x="18" y="150" width="96" height="14" rx="7" fill="#4ebabd"/>
  </g>
</svg>
