<?xml version="1.0" encoding="UTF-8"?>
<svg xmlns="http://www.w3.org/2000/svg" viewBox="0 0 1456 820" width="1456" height="820">

  <!-- White background -->
  <rect width="1456" height="820" fill="#ffffff"/>

  <!-- Left sidebar background -->
  <rect width="308" height="820" fill="#f9fafb"/>
  <line x1="308" y1="0" x2="308" y2="820" stroke="#e5e7eb" stroke-width="1"/>

  <!-- ============ TOP NAV BAR ============ -->
  <rect width="1456" height="64" fill="#ffffff"/>
  <line x1="0" y1="64" x2="1456" y2="64" stroke="#e5e7eb" stroke-width="1"/>

  <!-- VizeDraw logo icon (top-left) -->
  <rect x="16" y="15" width="34" height="34" rx="7" fill="#e8f7f6"/>
  <rect x="20" y="23" width="22" height="17" rx="3" fill="none" stroke="#14b8a6" stroke-width="1.8"/>
  <circle cx="31" cy="31.5" r="4.2" fill="none" stroke="#14b8a6" stroke-width="1.6"/>
  <path d="M26 20 L29 23" stroke="#14b8a6" stroke-width="1.5" stroke-linecap="round"/>
  <path d="M36 20 L33 23" stroke="#14b8a6" stroke-width="1.5" stroke-linecap="round"/>
  <!-- VIZEDRAW text -->
  <text x="58" y="39" font-family="Arial Black, Arial, sans-serif" font-size="13" font-weight="900" fill="#111827" letter-spacing="2">VIZE</text>
  <text x="103" y="39" font-family="Arial Black, Arial, sans-serif" font-size="13" font-weight="900" fill="#14b8a6" letter-spacing="2">DRAW</text>

  <!-- Search bar -->
  <rect x="220" y="14" width="658" height="36" rx="8" fill="#f9fafb" stroke="#e5e7eb" stroke-width="1"/>
  <!-- Search icon -->
  <circle cx="241" cy="32" r="7" fill="none" stroke="#9ca3af" stroke-width="1.5"/>
  <line x1="246" y1="37" x2="250" y2="41" stroke="#9ca3af" stroke-width="1.5" stroke-linecap="round"/>
  <text x="257" y="37" font-family="Arial, sans-serif" font-size="13" fill="#9ca3af">Search in Maple Tower...</text>
  <!-- ⌘K badge -->
  <rect x="845" y="21" width="32" height="22" rx="4" fill="#f3f4f6" stroke="#e5e7eb" stroke-width="1"/>
  <text x="849" y="36" font-family="monospace, Arial" font-size="11" fill="#6b7280">⌘K</text>

  <!-- ============ SIDEBAR NAV ============ -->

  <!-- + New button -->
  <rect x="16" y="80" width="276" height="42" rx="8" fill="#14b8a6"/>
  <line x1="37" y1="101" x2="51" y2="101" stroke="white" stroke-width="2" stroke-linecap="round"/>
  <line x1="44" y1="94" x2="44" y2="108" stroke="white" stroke-width="2" stroke-linecap="round"/>
  <text x="62" y="106" font-family="Arial, sans-serif" font-size="14" font-weight="600" fill="white">New</text>

  <!-- Dashboard -->
  <rect x="22" y="139" width="8" height="8" rx="1.5" fill="none" stroke="#6b7280" stroke-width="1.4"/>
  <rect x="32" y="139" width="8" height="8" rx="1.5" fill="none" stroke="#6b7280" stroke-width="1.4"/>
  <rect x="22" y="149" width="8" height="8" rx="1.5" fill="none" stroke="#6b7280" stroke-width="1.4"/>
  <rect x="32" y="149" width="8" height="8" rx="1.5" fill="none" stroke="#6b7280" stroke-width="1.4"/>
  <text x="52" y="153" font-family="Arial, sans-serif" font-size="13.5" fill="#374151">Dashboard</text>

  <!-- My projects (selected) -->
  <rect x="8" y="170" width="292" height="40" rx="6" fill="#e6f7f6"/>
  <path d="M22 181 L22 200 L48 200 L48 188 L39 188 L36 181 Z" fill="none" stroke="#14b8a6" stroke-width="1.5" stroke-linejoin="round"/>
  <text x="58" y="195" font-family="Arial, sans-serif" font-size="13.5" font-weight="500" fill="#14b8a6">My projects</text>

  <!-- Shared with me -->
  <circle cx="30" cy="228" r="4" fill="none" stroke="#6b7280" stroke-width="1.4"/>
  <circle cx="44" cy="222" r="4" fill="none" stroke="#6b7280" stroke-width="1.4"/>
  <circle cx="44" cy="234" r="4" fill="none" stroke="#6b7280" stroke-width="1.4"/>
  <line x1="34" y1="226" x2="40" y2="224" stroke="#6b7280" stroke-width="1.2"/>
  <line x1="34" y1="230" x2="40" y2="232" stroke="#6b7280" stroke-width="1.2"/>
  <text x="58" y="233" font-family="Arial, sans-serif" font-size="13.5" fill="#374151">Shared with me</text>

  <!-- Recent -->
  <circle cx="32" cy="268" r="9" fill="none" stroke="#6b7280" stroke-width="1.4"/>
  <line x1="32" y1="263" x2="32" y2="269" stroke="#6b7280" stroke-width="1.5" stroke-linecap="round"/>
  <line x1="32" y1="269" x2="37" y2="273" stroke="#6b7280" stroke-width="1.5" stroke-linecap="round"/>
  <text x="52" y="272" font-family="Arial, sans-serif" font-size="13.5" fill="#374151">Recent</text>

  <!-- Favorites -->
  <path d="M32 298 L34.6 305.6 L42.8 305.6 L36.4 310.2 L39 317.8 L32 313.2 L25 317.8 L27.6 310.2 L21.2 305.6 L29.4 305.6 Z" fill="none" stroke="#6b7280" stroke-width="1.3" stroke-linejoin="round"/>
  <text x="52" y="311" font-family="Arial, sans-serif" font-size="13.5" fill="#374151">Favorites</text>

  <!-- Trash -->
  <rect x="23" y="342" width="18" height="14" rx="1.5" fill="none" stroke="#6b7280" stroke-width="1.4"/>
  <line x1="20" y1="342" x2="44" y2="342" stroke="#6b7280" stroke-width="1.4" stroke-linecap="round"/>
  <line x1="28" y1="339" x2="36" y2="339" stroke="#6b7280" stroke-width="1.4" stroke-linecap="round"/>
  <line x1="28" y1="346" x2="28" y2="353" stroke="#6b7280" stroke-width="1.1" stroke-linecap="round"/>
  <line x1="32" y1="346" x2="32" y2="353" stroke="#6b7280" stroke-width="1.1" stroke-linecap="round"/>
  <line x1="36" y1="346" x2="36" y2="353" stroke="#6b7280" stroke-width="1.1" stroke-linecap="round"/>
  <text x="52" y="354" font-family="Arial, sans-serif" font-size="13.5" fill="#374151">Trash</text>

  <!-- PROJECTS section label -->
  <text x="20" y="390" font-family="Arial, sans-serif" font-size="11" font-weight="700" fill="#9ca3af" letter-spacing="0.8">PROJECTS</text>
  <!-- + add button -->
  <rect x="272" y="377" width="22" height="22" rx="5" fill="none" stroke="#e5e7eb" stroke-width="1.2"/>
  <line x1="283" y1="382" x2="283" y2="395" stroke="#9ca3af" stroke-width="1.5" stroke-linecap="round"/>
  <line x1="277" y1="388" x2="289" y2="388" stroke="#9ca3af" stroke-width="1.5" stroke-linecap="round"/>

  <!-- Maclean project -->
  <path d="M22 406 L22 422 L46 422 L46 413 L38 413 L35.5 406 Z" fill="none" stroke="#6b7280" stroke-width="1.3" stroke-linejoin="round"/>
  <text x="56" y="418" font-family="Arial, sans-serif" font-size="13.5" fill="#374151">Maclean</text>

  <!-- Maple Tower project (selected) -->
  <rect x="8" y="432" width="292" height="40" rx="6" fill="#e6f7f6"/>
  <rect x="8" y="432" width="3" height="40" rx="1.5" fill="#14b8a6"/>
  <path d="M22 442 L22 460 L46 460 L46 450 L38 450 L35.5 442 Z" fill="none" stroke="#14b8a6" stroke-width="1.4" stroke-linejoin="round"/>
  <text x="56" y="456" font-family="Arial, sans-serif" font-size="13.5" font-weight="500" fill="#14b8a6">Maple Tower</text>

  <!-- ============ MAIN CONTENT ============ -->

  <!-- Title row: star + "Maple Tower" -->
  <path d="M340 87 L343.4 97.2 L354.4 97.2 L345.8 103.6 L349.2 113.8 L340 107.4 L330.8 113.8 L334.2 103.6 L325.6 97.2 L336.6 97.2 Z" fill="none" stroke="#9ca3af" stroke-width="1.5" stroke-linejoin="round"/>
  <text x="368" y="110" font-family="Arial Black, Arial, sans-serif" font-size="26" font-weight="900" fill="#111827">Maple Tower</text>
  <!-- Breadcrumb -->
  <text x="332" y="132" font-family="Arial, sans-serif" font-size="13" fill="#6b7280">Maple Tower</text>

  <!-- Tabs -->
  <text x="332" y="166" font-family="Arial, sans-serif" font-size="14" font-weight="600" fill="#14b8a6">Files</text>
  <line x1="332" y1="173" x2="362" y2="173" stroke="#14b8a6" stroke-width="2.5"/>
  <text x="383" y="166" font-family="Arial, sans-serif" font-size="14" fill="#6b7280">Activity</text>
  <text x="455" y="166" font-family="Arial, sans-serif" font-size="14" fill="#6b7280">Permissions</text>
  <text x="573" y="166" font-family="Arial, sans-serif" font-size="14" fill="#6b7280">Settings</text>
  <line x1="310" y1="175" x2="1456" y2="175" stroke="#e5e7eb" stroke-width="1"/>

  <!-- Action buttons -->
  <!-- New folder (outlined) -->
  <rect x="332" y="192" width="124" height="36" rx="7" fill="white" stroke="#e5e7eb" stroke-width="1.3"/>
  <!-- folder icon -->
  <path d="M348 201 L348 217 L360 217" fill="none" stroke="#374151" stroke-width="1.3" stroke-linecap="round"/>
  <path d="M348 206" stroke="#e5e7eb" stroke-width="0.8"/>
  <text x="363" y="215" font-family="Arial, sans-serif" font-size="13" fill="#374151">New folder</text>

  <!-- Upload (teal filled) -->
  <rect x="467" y="192" width="104" height="36" rx="7" fill="#14b8a6"/>
  <!-- Upload arrow -->
  <path d="M484 212 L490 206 L496 212" fill="none" stroke="white" stroke-width="1.7" stroke-linecap="round" stroke-linejoin="round"/>
  <line x1="490" y1="206" x2="490" y2="220" stroke="white" stroke-width="1.7" stroke-linecap="round"/>
  <text x="504" y="215" font-family="Arial, sans-serif" font-size="13" font-weight="500" fill="white">Upload</text>

  <!-- ... more -->
  <rect x="581" y="192" width="38" height="36" rx="7" fill="white" stroke="#e5e7eb" stroke-width="1.3"/>
  <circle cx="590" cy="210" r="2.2" fill="#6b7280"/>
  <circle cx="600" cy="210" r="2.2" fill="#6b7280"/>
  <circle cx="610" cy="210" r="2.2" fill="#6b7280"/>

  <!-- ============ CONTENT SPLIT: TREE | FILE LIST ============ -->

  <!-- Vertical separator -->
  <line x1="614" y1="175" x2="614" y2="820" stroke="#e5e7eb" stroke-width="1"/>

  <!-- FILE TREE (x: 310-614) -->
  <!-- Maple Tower row (selected, active) -->
  <rect x="310" y="238" width="304" height="38" fill="#e6f7f6"/>
  <path d="M328 247 L328 265 L354 265 L354 255 L346 255 L343 247 Z" fill="none" stroke="#14b8a6" stroke-width="1.4" stroke-linejoin="round"/>
  <text x="362" y="261" font-family="Arial, sans-serif" font-size="13" fill="#14b8a6">Maple Tower</text>

  <!-- Apple folder (indented) -->
  <path d="M344 280 L344 296 L366 296 L366 288 L360 288 L358 280 Z" fill="none" stroke="#9ca3af" stroke-width="1.3" stroke-linejoin="round"/>
  <text x="374" y="292" font-family="Arial, sans-serif" font-size="13" fill="#374151">Apple</text>

  <!-- FILE LIST (x: 614-1456) -->
  <!-- Header row -->
  <rect x="614" y="302" width="842" height="36" fill="#f9fafb"/>
  <line x1="614" y1="302" x2="1456" y2="302" stroke="#e5e7eb" stroke-width="1"/>
  <line x1="614" y1="338" x2="1456" y2="338" stroke="#e5e7eb" stroke-width="1"/>
  <!-- Header checkbox -->
  <rect x="634" y="311" width="15" height="15" rx="3.5" fill="none" stroke="#d1d5db" stroke-width="1.4"/>
  <!-- Column headers -->
  <text x="666" y="325" font-family="Arial, sans-serif" font-size="11.5" font-weight="700" fill="#6b7280" letter-spacing="0.6">NAME</text>
  <text x="1094" y="325" font-family="Arial, sans-serif" font-size="11.5" font-weight="700" fill="#6b7280" letter-spacing="0.6">TYPE</text>
  <text x="1216" y="325" font-family="Arial, sans-serif" font-size="11.5" font-weight="700" fill="#6b7280" letter-spacing="0.6">VERSION</text>
  <text x="1336" y="325" font-family="Arial, sans-serif" font-size="11.5" font-weight="700" fill="#6b7280" letter-spacing="0.6">MODIFIED</text>

  <!-- Row 1: Apple folder -->
  <line x1="614" y1="392" x2="1456" y2="392" stroke="#f3f4f6" stroke-width="1"/>
  <!-- Folder icon -->
  <path d="M646 350 L646 370 L678 370 L678 360 L669 360 L666 350 Z" fill="none" stroke="#9ca3af" stroke-width="1.4" stroke-linejoin="round"/>
  <text x="690" y="365" font-family="Arial, sans-serif" font-size="14" fill="#111827">Apple</text>
  <text x="1094" y="365" font-family="Arial, sans-serif" font-size="13.5" fill="#374151">Folder</text>
  <text x="1232" y="365" font-family="Arial, sans-serif" font-size="14" fill="#9ca3af">—</text>
  <text x="1336" y="365" font-family="Arial, sans-serif" font-size="13.5" fill="#374151">6 Jun 2026</text>

  <!-- Row 2: PDF file -->
  <line x1="614" y1="446" x2="1456" y2="446" stroke="#f3f4f6" stroke-width="1"/>
  <!-- Checkbox -->
  <rect x="634" y="407" width="15" height="15" rx="3.5" fill="none" stroke="#d1d5db" stroke-width="1.4"/>
  <!-- PDF icon -->
  <path d="M652 400 L668 400 L674 406 L674 428 L652 428 Z" fill="none" stroke="#9ca3af" stroke-width="1.4" stroke-linejoin="round"/>
  <path d="M668 400 L668 406 L674 406" fill="none" stroke="#9ca3af" stroke-width="1.2" stroke-linejoin="round"/>
  <line x1="656" y1="413" x2="670" y2="413" stroke="#e5e7eb" stroke-width="1"/>
  <line x1="656" y1="419" x2="668" y2="419" stroke="#e5e7eb" stroke-width="1"/>
  <!-- PDF filename text -->
  <text x="686" y="419" font-family="Arial, sans-serif" font-size="14" fill="#111827">13. 60_ Flex (MI) 2025-11-21.pdf</text>
  <text x="1094" y="419" font-family="Arial, sans-serif" font-size="13.5" fill="#374151">PDF</text>
  <!-- V3 badge -->
  <rect x="1208" y="405" width="36" height="24" rx="12" fill="#ccefed"/>
  <text x="1214" y="421" font-family="Arial, sans-serif" font-size="12" font-weight="700" fill="#0e7490">V3</text>
  <!-- Modified date -->
  <text x="1336" y="419" font-family="Arial, sans-serif" font-size="13.5" fill="#374151">5 Jun 2026</text>

</svg>
