<svg width="900" height="506" viewBox="0 0 900 506" xmlns="http://www.w3.org/2000/svg" role="img" aria-label="VizeDraw PDF tools export panel with flatten, headers, and output format options" font-family="ui-sans-serif,system-ui,-apple-system,sans-serif">
  <defs>
    <pattern id="pg" width="28" height="28" patternUnits="userSpaceOnUse">
      <path d="M28 0H0V28" fill="none" stroke="#4ebabd" stroke-opacity="0.07" stroke-width="0.7"/>
    </pattern>
  </defs>

  <!-- Background -->
  <rect width="900" height="506" fill="#070B16"/>

  <!-- Top nav bar -->
  <rect width="900" height="42" fill="#0B1120"/>
  <circle cx="18" cy="21" r="4.5" fill="#FF6B4A" fill-opacity="0.85"/>
  <circle cx="32" cy="21" r="4.5" fill="#FFB23E" fill-opacity="0.85"/>
  <circle cx="46" cy="21" r="4.5" fill="#4ebabd" fill-opacity="0.85"/>
  <text x="72" y="25" fill="#E8EEF7" font-size="11" font-weight="500">13. 60_Flex (MI) 2025-11-21.pdf</text>
  <circle cx="854" cy="21" r="12" fill="#22c55e" fill-opacity="0.6"/>
  <text x="854" y="25" fill="#fff" font-size="9" font-weight="700" text-anchor="middle">K</text>
  <line x1="0" y1="42" x2="900" y2="42" stroke="#1E2A42"/>

  <!-- Markups panel (left) -->
  <rect x="0" y="42" width="440" height="464" fill="#0B1120"/>
  <line x1="440" y1="42" x2="440" y2="506" stroke="#1E2A42"/>

  <!-- Markups panel header -->
  <rect x="0" y="42" width="440" height="46" fill="#0E1830"/>
  <line x1="0" y1="88" x2="440" y2="88" stroke="#1E2A42"/>
  <text x="18" y="70" fill="#E8EEF7" font-size="14" font-weight="600">Markups</text>
  <text x="80" y="70" fill="#8A94A6" font-size="13">10</text>
  <text x="420" y="72" fill="#5E6A80" font-size="15">×</text>

  <!-- Status filter chips in Markups panel -->
  <text x="18" y="108" fill="#5E6A80" font-size="8.5" letter-spacing="1.4" font-family="ui-monospace,monospace">STATUS</text>
  <g font-size="8.5" text-anchor="middle">
    <rect x="18" y="114" width="50" height="18" rx="9" fill="#4ebabd" fill-opacity="0.2" stroke="#4ebabd" stroke-opacity="0.6"/>
    <text x="43" y="127" fill="#4ebabd">All  10</text>
    <rect x="74" y="114" width="54" height="18" rx="9" fill="#0E1626" stroke="#1E2A42"/>
    <text x="101" y="127" fill="#8A94A6">None  10</text>
    <rect x="134" y="114" width="54" height="18" rx="9" fill="#0E1626" stroke="#1E2A42"/>
    <text x="161" y="127" fill="#8A94A6">Review  0</text>
    <rect x="194" y="114" width="58" height="18" rx="9" fill="#0E1626" stroke="#1E2A42"/>
    <text x="223" y="127" fill="#8A94A6">Approved 0</text>
    <rect x="258" y="114" width="58" height="18" rx="9" fill="#0E1626" stroke="#1E2A42"/>
    <text x="287" y="127" fill="#8A94A6">Rejected  0</text>
  </g>

  <!-- TYPE section in Markups panel -->
  <text x="18" y="152" fill="#5E6A80" font-size="8.5" letter-spacing="1.4" font-family="ui-monospace,monospace">TYPE</text>
  <g font-size="8.5" fill="#8A94A6">
    <rect x="18" y="158" width="38" height="16" rx="8" fill="#0E1626" stroke="#1E2A42"/>
    <text x="37" y="170" text-anchor="middle">Arrow</text>
    <rect x="62" y="158" width="56" height="16" rx="8" fill="#0E1626" stroke="#1E2A42"/>
    <text x="90" y="170" text-anchor="middle">Rectangle</text>
    <rect x="124" y="158" width="44" height="16" rx="8" fill="#0E1626" stroke="#1E2A42"/>
    <text x="146" y="170" text-anchor="middle">Ellipse</text>
    <rect x="174" y="158" width="38" height="16" rx="8" fill="#0E1626" stroke="#1E2A42"/>
    <text x="193" y="170" text-anchor="middle">Cloud</text>
    <rect x="218" y="158" width="46" height="16" rx="8" fill="#0E1626" stroke="#1E2A42"/>
    <text x="241" y="170" text-anchor="middle">Polyline</text>
    <rect x="270" y="158" width="30" height="16" rx="8" fill="#0E1626" stroke="#1E2A42"/>
    <text x="285" y="170" text-anchor="middle">Text</text>
    <!-- Row 2 -->
    <rect x="18" y="180" width="58" height="16" rx="8" fill="#0E1626" stroke="#1E2A42"/>
    <text x="47" y="192" text-anchor="middle">Highlighter</text>
    <rect x="82" y="180" width="28" height="16" rx="8" fill="#0E1626" stroke="#1E2A42"/>
    <text x="96" y="192" text-anchor="middle">Pen</text>
    <rect x="116" y="180" width="58" height="16" rx="8" fill="#0E1626" stroke="#1E2A42"/>
    <text x="145" y="192" text-anchor="middle">Dimension</text>
    <rect x="180" y="180" width="42" height="16" rx="8" fill="#0E1626" stroke="#1E2A42"/>
    <text x="201" y="192" text-anchor="middle">Radius</text>
    <rect x="228" y="180" width="36" height="16" rx="8" fill="#0E1626" stroke="#1E2A42"/>
    <text x="246" y="192" text-anchor="middle">Angle</text>
    <!-- Row 3 -->
    <rect x="18" y="202" width="42" height="16" rx="8" fill="#0E1626" stroke="#1E2A42"/>
    <text x="39" y="214" text-anchor="middle">Leader</text>
    <rect x="66" y="202" width="40" height="16" rx="8" fill="#0E1626" stroke="#1E2A42"/>
    <text x="86" y="214" text-anchor="middle">Stamp</text>
    <rect x="112" y="202" width="40" height="16" rx="8" fill="#0E1626" stroke="#1E2A42"/>
    <text x="132" y="214" text-anchor="middle">Photo</text>
  </g>

  <!-- SAVED PRESETS -->
  <text x="18" y="240" fill="#5E6A80" font-size="8.5" letter-spacing="1.4" font-family="ui-monospace,monospace">SAVED PRESETS</text>
  <rect x="18" y="246" width="90" height="18" rx="6" fill="#0E1626" stroke="#1E2A42"/>
  <text x="63" y="259" fill="#4ebabd" font-size="8.5" text-anchor="middle">+ Save current</text>

  <line x1="0" y1="272" x2="440" y2="272" stroke="#1E2A42"/>

  <!-- PAGE 1 header -->
  <text x="18" y="290" fill="#8A94A6" font-size="10" font-weight="500">PAGE 1  <tspan fill="#5E6A80">10</tspan></text>

  <!-- Markup list items in left panel -->
  <g font-size="9.5">
    <rect x="0" y="298" width="440" height="30" fill="#0E1626"/>
    <line x1="0" y1="328" x2="440" y2="328" stroke="#1E2A42" stroke-width="0.5"/>
    <rect x="12" y="308" width="10" height="10" rx="2" fill="#ef4444"/>
    <text x="28" y="318" fill="#E8EEF7">Leader</text>
    <text x="200" y="314" fill="#3E4A60" font-size="7.5">AUTHOR —   STATUS none</text>

    <rect x="0" y="328" width="440" height="28" fill="#0B1120"/>
    <line x1="0" y1="356" x2="440" y2="356" stroke="#1E2A42" stroke-width="0.5"/>
    <rect x="14" y="338" width="10" height="10" rx="2" fill="#ef4444"/>
    <text x="30" y="347" fill="#8A94A6">Leader</text>

    <rect x="0" y="356" width="440" height="28" fill="#0B1120"/>
    <line x1="0" y1="384" x2="440" y2="384" stroke="#1E2A42" stroke-width="0.5"/>
    <ellipse cx="18" cy="370" rx="6" ry="4" fill="none" stroke="#ef4444" stroke-width="1.5"/>
    <text x="30" y="375" fill="#8A94A6">Ellipse</text>

    <rect x="0" y="384" width="440" height="28" fill="#0B1120"/>
    <line x1="0" y1="412" x2="440" y2="412" stroke="#1E2A42" stroke-width="0.5"/>
    <rect x="12" y="394" width="10" height="8" rx="1" fill="#ef4444" fill-opacity="0.5"/>
    <text x="28" y="403" fill="#8A94A6">Highlighter</text>

    <rect x="0" y="412" width="440" height="28" fill="#0B1120"/>
    <rect x="12" y="422" width="10" height="10" rx="4" fill="none" stroke="#ef4444" stroke-width="1.5"/>
    <text x="28" y="431" fill="#8A94A6">Cloud</text>
  </g>

  <!-- Export panel (right) -->
  <rect x="440" y="42" width="460" height="464" fill="#0B1120"/>

  <!-- Export panel header -->
  <rect x="440" y="42" width="460" height="46" fill="#0E1830"/>
  <line x1="440" y1="88" x2="900" y2="88" stroke="#1E2A42"/>
  <text x="458" y="70" fill="#E8EEF7" font-size="14" font-weight="600">Export</text>
  <text x="880" y="72" fill="#5E6A80" font-size="15">×</text>

  <!-- Prepare section -->
  <text x="458" y="110" fill="#8A94A6" font-size="11" font-weight="600">Prepare</text>

  <!-- Flatten markups -->
  <rect x="458" y="120" width="380" height="56" rx="8" fill="#0E1626" stroke="#1E2A42"/>
  <!-- Stack icon -->
  <g stroke="#8A94A6" stroke-width="1.4" fill="none">
    <rect x="470" y="132" width="18" height="4" rx="1"/>
    <rect x="470" y="139" width="18" height="4" rx="1"/>
    <rect x="470" y="146" width="18" height="4" rx="1"/>
  </g>
  <text x="496" y="138" fill="#E8EEF7" font-size="10" font-weight="500">Flatten markups</text>
  <text x="496" y="152" fill="#5E6A80" font-size="8.5">Download a flattened copy; server copy stays editable</text>
  <text x="828" y="144" fill="#5E6A80" font-size="10">↓</text>

  <!-- Headers and footers -->
  <rect x="458" y="182" width="380" height="56" rx="8" fill="#0E1626" stroke="#1E2A42"/>
  <!-- Page icon -->
  <g stroke="#8A94A6" stroke-width="1.4" fill="none">
    <rect x="470" y="194" width="16" height="20" rx="2"/>
    <line x1="473" y1="199" x2="483" y2="199"/>
    <line x1="473" y1="203" x2="483" y2="203"/>
    <line x1="473" y1="207" x2="480" y2="207"/>
  </g>
  <text x="496" y="200" fill="#E8EEF7" font-size="10" font-weight="500">Headers and footers</text>
  <text x="496" y="214" fill="#5E6A80" font-size="8.5">Apply title block text and download</text>
  <text x="828" y="206" fill="#5E6A80" font-size="10">↓</text>

  <!-- Band-stamp pages -->
  <rect x="458" y="244" width="380" height="56" rx="8" fill="#0E1626" stroke="#1E2A42"/>
  <!-- Stamp icon -->
  <g stroke="#8A94A6" stroke-width="1.4" fill="none">
    <rect x="470" y="256" width="18" height="14" rx="2"/>
    <line x1="470" y1="274" x2="488" y2="274"/>
    <line x1="477" y1="256" x2="477" y2="270"/>
  </g>
  <text x="496" y="262" fill="#E8EEF7" font-size="10" font-weight="500">Band-stamp pages</text>
  <text x="496" y="276" fill="#5E6A80" font-size="8.5">Place the same stamp on multiple pages</text>
  <text x="828" y="268" fill="#5E6A80" font-size="10">↓</text>

  <!-- Output section -->
  <text x="458" y="322" fill="#8A94A6" font-size="11" font-weight="600">Output</text>

  <!-- PDF with markups -->
  <rect x="458" y="332" width="380" height="44" rx="8" fill="#0E1626" stroke="#1E2A42"/>
  <rect x="468" y="342" width="24" height="26" rx="3" fill="#ef4444" fill-opacity="0.25" stroke="#ef4444" stroke-opacity="0.5"/>
  <text x="480" y="359" fill="#ef4444" font-size="8.5" text-anchor="middle" font-weight="700">PDF</text>
  <text x="502" y="349" fill="#E8EEF7" font-size="10" font-weight="500">PDF with markups</text>
  <text x="502" y="362" fill="#5E6A80" font-size="8.5">Flatten markups and takeoff into a downloadable PDF</text>
  <text x="828" y="356" fill="#5E6A80" font-size="10">↓</text>

  <!-- PDF for Editable -->
  <rect x="458" y="382" width="380" height="44" rx="8" fill="#0E1626" stroke="#1E2A42"/>
  <rect x="468" y="392" width="24" height="26" rx="3" fill="#ef4444" fill-opacity="0.15" stroke="#ef4444" stroke-opacity="0.35"/>
  <text x="480" y="409" fill="#ef4444" font-size="7.5" text-anchor="middle" font-weight="700">PDF</text>
  <text x="502" y="399" fill="#E8EEF7" font-size="10" font-weight="500">PDF for Editable</text>
  <text x="502" y="412" fill="#5E6A80" font-size="8.5">Standard PDF annotations — editable in Revu Markups List</text>
  <text x="828" y="406" fill="#5E6A80" font-size="10">↓</text>

  <!-- XFDF for import -->
  <rect x="458" y="432" width="380" height="36" rx="8" fill="#0E1626" stroke="#1E2A42"/>
  <g stroke="#8A94A6" stroke-width="1.4" fill="none">
    <path d="M472 442 L480 448 L472 454"/>
    <path d="M466 442 L466 454"/>
  </g>
  <text x="490" y="447" fill="#E8EEF7" font-size="10" font-weight="500">XFDF for import</text>
  <text x="490" y="459" fill="#5E6A80" font-size="8.5">Import via Markups List after opening the same drawing PDF</text>
  <text x="828" y="452" fill="#5E6A80" font-size="10">↓</text>

  <!-- Limited page range checkbox -->
  <rect x="458" y="474" width="380" height="28" rx="6" fill="transparent"/>
  <rect x="462" y="481" width="14" height="14" rx="3" fill="#0E1626" stroke="#1E2A42"/>
  <text x="482" y="492" fill="#5E6A80" font-size="9">Limited page range</text>
</svg>
