<svg width="960" height="760" viewBox="0 0 960 760" xmlns="http://www.w3.org/2000/svg" font-family="ui-sans-serif,system-ui,-apple-system,'Segoe UI',sans-serif">

  <!-- Background -->
  <rect width="960" height="760" fill="#F3F4F6"/>

  <!-- ═══════════════════════════════════════════
       COLUMN 1 — Project Navigation Sidebar
  ══════════════════════════════════════════════ -->
  <rect x="0" y="0" width="300" height="760" fill="#FFFFFF"/>
  <line x1="300" y1="0" x2="300" y2="760" stroke="#E5E7EB" stroke-width="1"/>

  <!-- Dashboard -->
  <rect x="10" y="10" width="278" height="42" rx="8" fill="#FFFFFF"/>
  <rect x="26" y="23" width="7" height="7" rx="1.5" fill="#6B7280"/>
  <rect x="36" y="23" width="7" height="7" rx="1.5" fill="#6B7280"/>
  <rect x="26" y="33" width="7" height="7" rx="1.5" fill="#6B7280"/>
  <rect x="36" y="33" width="7" height="7" rx="1.5" fill="#6B7280"/>
  <text x="56" y="35" fill="#374151" font-size="14.5" font-weight="500">Dashboard</text>

  <!-- My projects (active) -->
  <rect x="0" y="57" width="4" height="42" rx="2" fill="#2EA8A8"/>
  <rect x="10" y="57" width="278" height="42" rx="8" fill="#EBF8F8"/>
  <path d="M26 71 L26 89 Q26 92 29 92 L51 92 Q54 92 54 89 L54 73 Q54 70 51 70 L40 70 L38 68 L29 68 Q26 68 26 71Z" fill="none" stroke="#2EA8A8" stroke-width="1.6"/>
  <text x="62" y="83" fill="#2EA8A8" font-size="14.5" font-weight="700">My projects</text>

  <!-- Shared with me -->
  <rect x="10" y="103" width="278" height="42" rx="8" fill="#FFFFFF"/>
  <circle cx="32" cy="117" r="4" fill="none" stroke="#6B7280" stroke-width="1.5"/>
  <circle cx="44" cy="111" r="4" fill="none" stroke="#6B7280" stroke-width="1.5"/>
  <circle cx="44" cy="123" r="4" fill="none" stroke="#6B7280" stroke-width="1.5"/>
  <line x1="36" y1="115" x2="40" y2="112" stroke="#6B7280" stroke-width="1.3"/>
  <line x1="36" y1="119" x2="40" y2="122" stroke="#6B7280" stroke-width="1.3"/>
  <text x="62" y="129" fill="#374151" font-size="14.5">Shared with me</text>

  <!-- Recent -->
  <rect x="10" y="149" width="278" height="42" rx="8" fill="#FFFFFF"/>
  <circle cx="38" cy="170" r="11" fill="none" stroke="#6B7280" stroke-width="1.5"/>
  <line x1="38" y1="163" x2="38" y2="170" stroke="#6B7280" stroke-width="1.5" stroke-linecap="round"/>
  <line x1="38" y1="170" x2="44" y2="173" stroke="#6B7280" stroke-width="1.5" stroke-linecap="round"/>
  <text x="62" y="175" fill="#374151" font-size="14.5">Recent</text>

  <!-- Favorites -->
  <rect x="10" y="195" width="278" height="42" rx="8" fill="#FFFFFF"/>
  <path d="M38 199 L40.5 207 L48 207 L42 211.5 L44.5 219 L38 214.5 L31.5 219 L34 211.5 L28 207 L35.5 207Z" fill="none" stroke="#6B7280" stroke-width="1.5" stroke-linejoin="round"/>
  <text x="62" y="221" fill="#374151" font-size="14.5">Favorites</text>

  <!-- Trash -->
  <rect x="10" y="241" width="278" height="42" rx="8" fill="#FFFFFF"/>
  <rect x="29" y="251" width="18" height="20" rx="2" fill="none" stroke="#6B7280" stroke-width="1.5"/>
  <line x1="26" y1="251" x2="50" y2="251" stroke="#6B7280" stroke-width="1.5" stroke-linecap="round"/>
  <path d="M33 248 L33 246 Q33 244 35 244 L41 244 Q43 244 43 246 L43 248" fill="none" stroke="#6B7280" stroke-width="1.5"/>
  <text x="62" y="267" fill="#374151" font-size="14.5">Trash</text>

  <!-- PROJECTS header -->
  <text x="22" y="309" fill="#9CA3AF" font-size="11" font-weight="700" letter-spacing="1.2">PROJECTS</text>
  <rect x="258" y="294" width="30" height="24" rx="6" fill="#F9FAFB" stroke="#E5E7EB" stroke-width="1"/>
  <text x="273" y="310" fill="#6B7280" font-size="17" text-anchor="middle">+</text>

  <!-- Global Steel -->
  <rect x="10" y="319" width="278" height="44" rx="8" fill="#FFFFFF" stroke="#E5E7EB" stroke-width="1"/>
  <path d="M26 331 L26 351 Q26 353 28 353 L48 353 Q50 353 50 351 L50 335 Q50 333 48 333 L37 333 L35 331Z" fill="none" stroke="#9CA3AF" stroke-width="1.3"/>
  <text x="62" y="346" fill="#374151" font-size="13.5">Global Steel</text>

  <!-- Zen Steel -->
  <rect x="10" y="369" width="278" height="44" rx="8" fill="#FFFFFF" stroke="#E5E7EB" stroke-width="1"/>
  <path d="M26 381 L26 401 Q26 403 28 403 L48 403 Q50 403 50 401 L50 385 Q50 383 48 383 L37 383 L35 381Z" fill="none" stroke="#9CA3AF" stroke-width="1.3"/>
  <text x="62" y="396" fill="#374151" font-size="13.5">Zen Steel</text>

  <!-- Veritex Steel -->
  <rect x="10" y="419" width="278" height="44" rx="8" fill="#FFFFFF" stroke="#E5E7EB" stroke-width="1"/>
  <path d="M26 431 L26 451 Q26 453 28 453 L48 453 Q50 453 50 451 L50 435 Q50 433 48 433 L37 433 L35 431Z" fill="none" stroke="#9CA3AF" stroke-width="1.3"/>
  <text x="62" y="446" fill="#374151" font-size="13.5">Veritex Steel</text>

  <!-- Zenitude -->
  <rect x="10" y="469" width="278" height="44" rx="8" fill="#FFFFFF" stroke="#E5E7EB" stroke-width="1"/>
  <path d="M26 481 L26 501 Q26 503 28 503 L48 503 Q50 503 50 501 L50 485 Q50 483 48 483 L37 483 L35 481Z" fill="none" stroke="#9CA3AF" stroke-width="1.3"/>
  <text x="62" y="496" fill="#374151" font-size="13.5">Zenitude</text>

  <!-- Maclean -->
  <rect x="10" y="519" width="278" height="44" rx="8" fill="#FFFFFF" stroke="#E5E7EB" stroke-width="1"/>
  <path d="M26 531 L26 551 Q26 553 28 553 L48 553 Q50 553 50 551 L50 535 Q50 533 48 533 L37 533 L35 531Z" fill="none" stroke="#9CA3AF" stroke-width="1.3"/>
  <text x="62" y="546" fill="#374151" font-size="13.5">Maclean</text>

  <!-- Maple Tower (active — teal border) -->
  <rect x="10" y="569" width="278" height="44" rx="8" fill="#FFFFFF" stroke="#2EA8A8" stroke-width="1.8"/>
  <path d="M26 581 L26 601 Q26 603 28 603 L48 603 Q50 603 50 601 L50 585 Q50 583 48 583 L37 583 L35 581Z" fill="none" stroke="#2EA8A8" stroke-width="1.4"/>
  <text x="62" y="596" fill="#2EA8A8" font-size="13.5" font-weight="600">Maple Tower</text>


  <!-- ═══════════════════════════════════════════
       COLUMN 2 — File Details Panel
  ══════════════════════════════════════════════ -->
  <rect x="300" y="0" width="660" height="760" fill="#FFFFFF"/>

  <!-- Title row -->
  <text x="322" y="36" fill="#111827" font-size="16" font-weight="700">13. 60_ Flex (MI) 2025-11-21.pdf</text>
  <text x="942" y="36" fill="#9CA3AF" font-size="22" text-anchor="middle">×</text>

  <!-- V3 (Current) badge -->
  <rect x="322" y="46" width="108" height="24" rx="12" fill="#DCFCE7" stroke="#86EFAC" stroke-width="1"/>
  <text x="376" y="62" fill="#16A34A" font-size="12" font-weight="600" text-anchor="middle">V3 (Current)</text>

  <!-- Tab bar -->
  <line x1="300" y1="90" x2="960" y2="90" stroke="#E5E7EB" stroke-width="1"/>
  <text x="328" y="81" fill="#2EA8A8" font-size="14" font-weight="700">Details</text>
  <line x1="314" y1="90" x2="370" y2="90" stroke="#2EA8A8" stroke-width="2.5"/>
  <text x="396" y="81" fill="#6B7280" font-size="14">Versions</text>
  <text x="474" y="81" fill="#6B7280" font-size="14">Activity</text>
  <text x="548" y="81" fill="#6B7280" font-size="14">Permissions</text>

  <!-- PDF Thumbnail -->
  <rect x="318" y="102" width="340" height="192" rx="4" fill="#F8FAFC" stroke="#CBD5E1" stroke-width="1"/>
  <!-- horizontal lines -->
  <line x1="328" y1="116" x2="648" y2="116" stroke="#C8D0DC" stroke-width="0.7"/>
  <line x1="328" y1="129" x2="648" y2="129" stroke="#C8D0DC" stroke-width="0.7"/>
  <line x1="328" y1="142" x2="648" y2="142" stroke="#C8D0DC" stroke-width="0.7"/>
  <line x1="328" y1="155" x2="648" y2="155" stroke="#C8D0DC" stroke-width="0.7"/>
  <line x1="328" y1="168" x2="648" y2="168" stroke="#C8D0DC" stroke-width="0.7"/>
  <line x1="328" y1="181" x2="648" y2="181" stroke="#C8D0DC" stroke-width="0.7"/>
  <line x1="328" y1="194" x2="648" y2="194" stroke="#C8D0DC" stroke-width="0.7"/>
  <line x1="328" y1="207" x2="648" y2="207" stroke="#C8D0DC" stroke-width="0.7"/>
  <line x1="328" y1="220" x2="648" y2="220" stroke="#C8D0DC" stroke-width="0.7"/>
  <line x1="328" y1="233" x2="648" y2="233" stroke="#C8D0DC" stroke-width="0.7"/>
  <line x1="328" y1="246" x2="648" y2="246" stroke="#C8D0DC" stroke-width="0.7"/>
  <line x1="328" y1="259" x2="648" y2="259" stroke="#C8D0DC" stroke-width="0.7"/>
  <line x1="328" y1="272" x2="648" y2="272" stroke="#C8D0DC" stroke-width="0.7"/>
  <!-- vertical lines -->
  <line x1="362" y1="106" x2="362" y2="290" stroke="#C8D0DC" stroke-width="0.7"/>
  <line x1="400" y1="106" x2="400" y2="290" stroke="#C8D0DC" stroke-width="0.7"/>
  <line x1="438" y1="106" x2="438" y2="290" stroke="#C8D0DC" stroke-width="0.7"/>
  <line x1="476" y1="106" x2="476" y2="290" stroke="#C8D0DC" stroke-width="0.7"/>
  <line x1="514" y1="106" x2="514" y2="290" stroke="#C8D0DC" stroke-width="0.7"/>
  <line x1="552" y1="106" x2="552" y2="290" stroke="#C8D0DC" stroke-width="0.7"/>
  <line x1="610" y1="106" x2="610" y2="290" stroke="#C8D0DC" stroke-width="0.7"/>
  <!-- title block -->
  <rect x="318" y="272" width="340" height="22" fill="#F1F5F9" stroke="#CBD5E1" stroke-width="0.8"/>
  <text x="488" y="287" fill="#475569" font-size="9" text-anchor="middle" font-weight="700" letter-spacing="0.5">FLEX - BUILDING 1</text>
  <text x="652" y="287" fill="#475569" font-size="8.5" text-anchor="end">S1.102.C</text>

  <!-- INFORMATION section -->
  <rect x="310" y="306" width="638" height="196" rx="8" fill="#FFFFFF" stroke="#E5E7EB" stroke-width="1"/>
  <!-- header bg -->
  <rect x="310" y="306" width="638" height="38" rx="8" fill="#F9FAFB"/>
  <rect x="310" y="324" width="638" height="20" fill="#F9FAFB"/>
  <text x="330" y="330" fill="#374151" font-size="12" font-weight="700" letter-spacing="0.8">INFORMATION</text>
  <text x="934" y="328" fill="#9CA3AF" font-size="13" text-anchor="end">∧</text>
  <line x1="310" y1="344" x2="948" y2="344" stroke="#E5E7EB" stroke-width="1"/>

  <!-- TYPE / SIZE -->
  <text x="330" y="368" fill="#9CA3AF" font-size="10.5" font-weight="600" letter-spacing="0.8">TYPE</text>
  <text x="330" y="386" fill="#111827" font-size="13.5" font-weight="600">PDF drawing</text>
  <text x="620" y="368" fill="#9CA3AF" font-size="10.5" font-weight="600" letter-spacing="0.8">SIZE</text>
  <text x="620" y="386" fill="#111827" font-size="13.5" font-weight="600">539 KB</text>

  <!-- PAGES / CREATED BY -->
  <text x="330" y="410" fill="#9CA3AF" font-size="10.5" font-weight="600" letter-spacing="0.8">PAGES</text>
  <text x="330" y="428" fill="#111827" font-size="13.5" font-weight="600">1</text>
  <text x="620" y="410" fill="#9CA3AF" font-size="10.5" font-weight="600" letter-spacing="0.8">CREATED BY</text>
  <text x="620" y="428" fill="#111827" font-size="13.5" font-weight="600">Kumar</text>

  <!-- CREATED ON / MODIFIED -->
  <text x="330" y="452" fill="#9CA3AF" font-size="10.5" font-weight="600" letter-spacing="0.8">CREATED ON</text>
  <text x="330" y="470" fill="#111827" font-size="13.5" font-weight="600">22 May 2026</text>
  <text x="620" y="452" fill="#9CA3AF" font-size="10.5" font-weight="600" letter-spacing="0.8">MODIFIED</text>
  <text x="620" y="470" fill="#111827" font-size="13.5" font-weight="600">5 Jun 2026</text>

  <!-- LOCATION / VISIBILITY -->
  <text x="330" y="494" fill="#9CA3AF" font-size="10.5" font-weight="600" letter-spacing="0.8">LOCATION</text>
  <text x="330" y="500" fill="#111827" font-size="13.5" font-weight="600">Maple Tower</text>
  <text x="620" y="494" fill="#9CA3AF" font-size="10.5" font-weight="600" letter-spacing="0.8">VISIBILITY</text>
  <text x="620" y="500" fill="#111827" font-size="13.5" font-weight="600">Restricted</text>

  <!-- ACCESS section -->
  <rect x="310" y="514" width="638" height="234" rx="8" fill="#FFFFFF" stroke="#E5E7EB" stroke-width="1"/>
  <!-- header bg -->
  <rect x="310" y="514" width="638" height="38" rx="8" fill="#F9FAFB"/>
  <rect x="310" y="532" width="638" height="20" fill="#F9FAFB"/>
  <text x="330" y="538" fill="#374151" font-size="12" font-weight="700" letter-spacing="0.8">ACCESS</text>
  <text x="934" y="536" fill="#9CA3AF" font-size="13" text-anchor="end">∧</text>
  <line x1="310" y1="552" x2="948" y2="552" stroke="#E5E7EB" stroke-width="1"/>

  <!-- Add collaborators -->
  <text x="330" y="573" fill="#2EA8A8" font-size="12.5">＋ Add collaborators</text>

  <!-- Divider -->
  <line x1="310" y1="584" x2="948" y2="584" stroke="#F3F4F6" stroke-width="1"/>

  <!-- You — OWNER -->
  <circle cx="342" cy="610" r="18" fill="#3B82F6"/>
  <text x="342" y="615" fill="#FFFFFF" font-size="10.5" font-weight="700" text-anchor="middle">YO</text>
  <text x="370" y="605" fill="#111827" font-size="13.5" font-weight="600">You</text>
  <text x="370" y="621" fill="#9CA3AF" font-size="12">Project owner</text>
  <text x="938" y="613" fill="#6B7280" font-size="11.5" text-anchor="end" font-weight="700" letter-spacing="0.5">OWNER</text>
  <line x1="310" y1="638" x2="948" y2="638" stroke="#F3F4F6" stroke-width="1"/>

  <!-- Sathwik — EDITOR -->
  <circle cx="342" cy="664" r="18" fill="#84CC16"/>
  <text x="342" y="669" fill="#FFFFFF" font-size="10.5" font-weight="700" text-anchor="middle">SA</text>
  <text x="370" y="659" fill="#111827" font-size="13.5" font-weight="600">Sathwik</text>
  <text x="370" y="675" fill="#9CA3AF" font-size="12">sathwik@naveentechstudio.com</text>
  <text x="938" y="667" fill="#6B7280" font-size="11.5" text-anchor="end" font-weight="700" letter-spacing="0.5">EDITOR</text>
  <line x1="310" y1="692" x2="948" y2="692" stroke="#F3F4F6" stroke-width="1"/>

  <!-- Naveen — VIEWER -->
  <circle cx="342" cy="718" r="18" fill="#A78BFA"/>
  <text x="342" y="723" fill="#FFFFFF" font-size="10.5" font-weight="700" text-anchor="middle">NA</text>
  <text x="370" y="713" fill="#111827" font-size="13.5" font-weight="600">Naveen</text>
  <text x="370" y="729" fill="#9CA3AF" font-size="12">naveen@naveentechstudio.com</text>
  <text x="938" y="721" fill="#6B7280" font-size="11.5" text-anchor="end" font-weight="700" letter-spacing="0.5">VIEWER</text>

</svg>
